%TF.GenerationSoftware,KiCad,Pcbnew,9.0.3*%
%TF.CreationDate,2026-03-17T14:58:35+00:00*%
%TF.ProjectId,DigitSynth,44696769-7453-4796-9e74-682e6b696361,rev?*%
%TF.SameCoordinates,Original*%
%TF.FileFunction,Legend,Bot*%
%TF.FilePolarity,Positive*%
%FSLAX46Y46*%
G04 Gerber Fmt 4.6, Leading zero omitted, Abs format (unit mm)*
G04 Created by KiCad (PCBNEW 9.0.3) date 2026-03-17 14:58:35*
%MOMM*%
%LPD*%
G01*
G04 APERTURE LIST*
%ADD10C,0.150000*%
%ADD11C,0.120000*%
G04 APERTURE END LIST*
D10*
X105449819Y-102067619D02*
X106164104Y-102067619D01*
X106164104Y-102067619D02*
X106306961Y-102020000D01*
X106306961Y-102020000D02*
X106402200Y-101924762D01*
X106402200Y-101924762D02*
X106449819Y-101781905D01*
X106449819Y-101781905D02*
X106449819Y-101686667D01*
X106545057Y-102305715D02*
X106545057Y-103067619D01*
X106449819Y-103877143D02*
X105973628Y-103543810D01*
X106449819Y-103305715D02*
X105449819Y-103305715D01*
X105449819Y-103305715D02*
X105449819Y-103686667D01*
X105449819Y-103686667D02*
X105497438Y-103781905D01*
X105497438Y-103781905D02*
X105545057Y-103829524D01*
X105545057Y-103829524D02*
X105640295Y-103877143D01*
X105640295Y-103877143D02*
X105783152Y-103877143D01*
X105783152Y-103877143D02*
X105878390Y-103829524D01*
X105878390Y-103829524D02*
X105926009Y-103781905D01*
X105926009Y-103781905D02*
X105973628Y-103686667D01*
X105973628Y-103686667D02*
X105973628Y-103305715D01*
X106449819Y-104305715D02*
X105449819Y-104305715D01*
X105449819Y-104305715D02*
X105449819Y-104686667D01*
X105449819Y-104686667D02*
X105497438Y-104781905D01*
X105497438Y-104781905D02*
X105545057Y-104829524D01*
X105545057Y-104829524D02*
X105640295Y-104877143D01*
X105640295Y-104877143D02*
X105783152Y-104877143D01*
X105783152Y-104877143D02*
X105878390Y-104829524D01*
X105878390Y-104829524D02*
X105926009Y-104781905D01*
X105926009Y-104781905D02*
X105973628Y-104686667D01*
X105973628Y-104686667D02*
X105973628Y-104305715D01*
X106449819Y-105305715D02*
X105449819Y-105305715D01*
X106449819Y-106305714D02*
X106449819Y-105734286D01*
X106449819Y-106020000D02*
X105449819Y-106020000D01*
X105449819Y-106020000D02*
X105592676Y-105924762D01*
X105592676Y-105924762D02*
X105687914Y-105829524D01*
X105687914Y-105829524D02*
X105735533Y-105734286D01*
D11*
%TO.C,J_RPI1*%
X106995000Y-101370000D02*
X106995000Y-102750000D01*
X106995000Y-104020000D02*
X106995000Y-106670000D01*
X106995000Y-106670000D02*
X158015000Y-106670000D01*
X108375000Y-101370000D02*
X106995000Y-101370000D01*
X109645000Y-101370000D02*
X109645000Y-104020000D01*
X109645000Y-101370000D02*
X158015000Y-101370000D01*
X109645000Y-104020000D02*
X106995000Y-104020000D01*
X158015000Y-101370000D02*
X158015000Y-106670000D01*
%TD*%
M02*
