%TF.GenerationSoftware,KiCad,Pcbnew,9.0.3*%
%TF.CreationDate,2026-03-17T14:58:35+00:00*%
%TF.ProjectId,DigitSynth,44696769-7453-4796-9e74-682e6b696361,rev?*%
%TF.SameCoordinates,Original*%
%TF.FileFunction,Soldermask,Top*%
%TF.FilePolarity,Negative*%
%FSLAX46Y46*%
G04 Gerber Fmt 4.6, Leading zero omitted, Abs format (unit mm)*
G04 Created by KiCad (PCBNEW 9.0.3) date 2026-03-17 14:58:35*
%MOMM*%
%LPD*%
G01*
G04 APERTURE LIST*
G04 Aperture macros list*
%AMRoundRect*
0 Rectangle with rounded corners*
0 $1 Rounding radius*
0 $2 $3 $4 $5 $6 $7 $8 $9 X,Y pos of 4 corners*
0 Add a 4 corners polygon primitive as box body*
4,1,4,$2,$3,$4,$5,$6,$7,$8,$9,$2,$3,0*
0 Add four circle primitives for the rounded corners*
1,1,$1+$1,$2,$3*
1,1,$1+$1,$4,$5*
1,1,$1+$1,$6,$7*
1,1,$1+$1,$8,$9*
0 Add four rect primitives between the rounded corners*
20,1,$1+$1,$2,$3,$4,$5,0*
20,1,$1+$1,$4,$5,$6,$7,0*
20,1,$1+$1,$6,$7,$8,$9,0*
20,1,$1+$1,$8,$9,$2,$3,0*%
%AMFreePoly0*
4,1,23,0.500000,-0.750000,0.000000,-0.750000,0.000000,-0.745722,-0.065263,-0.745722,-0.191342,-0.711940,-0.304381,-0.646677,-0.396677,-0.554381,-0.461940,-0.441342,-0.495722,-0.315263,-0.495722,-0.250000,-0.500000,-0.250000,-0.500000,0.250000,-0.495722,0.250000,-0.495722,0.315263,-0.461940,0.441342,-0.396677,0.554381,-0.304381,0.646677,-0.191342,0.711940,-0.065263,0.745722,0.000000,0.745722,
0.000000,0.750000,0.500000,0.750000,0.500000,-0.750000,0.500000,-0.750000,$1*%
%AMFreePoly1*
4,1,23,0.000000,0.745722,0.065263,0.745722,0.191342,0.711940,0.304381,0.646677,0.396677,0.554381,0.461940,0.441342,0.495722,0.315263,0.495722,0.250000,0.500000,0.250000,0.500000,-0.250000,0.495722,-0.250000,0.495722,-0.315263,0.461940,-0.441342,0.396677,-0.554381,0.304381,-0.646677,0.191342,-0.711940,0.065263,-0.745722,0.000000,-0.745722,0.000000,-0.750000,-0.500000,-0.750000,
-0.500000,0.750000,0.000000,0.750000,0.000000,0.745722,0.000000,0.745722,$1*%
G04 Aperture macros list end*
%ADD10RoundRect,0.225000X0.225000X0.250000X-0.225000X0.250000X-0.225000X-0.250000X0.225000X-0.250000X0*%
%ADD11RoundRect,0.200000X0.275000X-0.200000X0.275000X0.200000X-0.275000X0.200000X-0.275000X-0.200000X0*%
%ADD12FreePoly0,90.000000*%
%ADD13FreePoly1,90.000000*%
%ADD14RoundRect,0.250000X-0.845000X0.620000X-0.845000X-0.620000X0.845000X-0.620000X0.845000X0.620000X0*%
%ADD15O,2.190000X1.740000*%
%ADD16RoundRect,0.200000X-0.200000X-0.275000X0.200000X-0.275000X0.200000X0.275000X-0.200000X0.275000X0*%
%ADD17C,1.000000*%
%ADD18RoundRect,0.150000X0.587500X0.150000X-0.587500X0.150000X-0.587500X-0.150000X0.587500X-0.150000X0*%
%ADD19RoundRect,0.218750X-0.218750X-0.256250X0.218750X-0.256250X0.218750X0.256250X-0.218750X0.256250X0*%
%ADD20RoundRect,0.250000X0.620000X0.845000X-0.620000X0.845000X-0.620000X-0.845000X0.620000X-0.845000X0*%
%ADD21O,1.740000X2.190000*%
%ADD22R,0.450000X1.750000*%
%ADD23C,0.630000*%
%ADD24C,0.600000*%
%ADD25R,1.000000X0.520000*%
%ADD26R,1.000000X0.270000*%
%ADD27O,2.316000X1.158000*%
%ADD28O,2.400000X1.200000*%
%ADD29R,2.000000X1.000000*%
%ADD30RoundRect,0.250000X0.845000X-0.620000X0.845000X0.620000X-0.845000X0.620000X-0.845000X-0.620000X0*%
%ADD31RoundRect,0.250000X0.250000X0.475000X-0.250000X0.475000X-0.250000X-0.475000X0.250000X-0.475000X0*%
%ADD32C,2.700000*%
%ADD33RoundRect,0.225000X-0.250000X0.225000X-0.250000X-0.225000X0.250000X-0.225000X0.250000X0.225000X0*%
%ADD34RoundRect,0.225000X0.250000X-0.225000X0.250000X0.225000X-0.250000X0.225000X-0.250000X-0.225000X0*%
%ADD35R,1.700000X1.700000*%
%ADD36C,1.700000*%
G04 APERTURE END LIST*
%TO.C,JP1*%
G36*
X104770000Y-144530000D02*
G01*
X106270000Y-144530000D01*
X106270000Y-144230000D01*
X104770000Y-144230000D01*
X104770000Y-144530000D01*
G37*
%TO.C,JP2*%
G36*
X110650000Y-144800000D02*
G01*
X112150000Y-144800000D01*
X112150000Y-144500000D01*
X110650000Y-144500000D01*
X110650000Y-144800000D01*
G37*
%TD*%
D10*
%TO.C,C_AVDD_1*%
X121710000Y-120930000D03*
X120160000Y-120930000D03*
%TD*%
D11*
%TO.C,R2*%
X138500000Y-147450000D03*
X138500000Y-145800000D03*
%TD*%
D12*
%TO.C,JP1*%
X105520000Y-145030000D03*
D13*
X105520000Y-143730000D03*
%TD*%
D10*
%TO.C,C5*%
X149030000Y-120970000D03*
X147480000Y-120970000D03*
%TD*%
D14*
%TO.C,J7*%
X154480000Y-110820000D03*
D15*
X154480000Y-113360000D03*
X154480000Y-115900000D03*
X154480000Y-118440000D03*
X154480000Y-120980000D03*
X154480000Y-123520000D03*
X154480000Y-126060000D03*
X154480000Y-128600000D03*
%TD*%
D16*
%TO.C,R16*%
X114000000Y-123090000D03*
X115650000Y-123090000D03*
%TD*%
D14*
%TO.C,J1*%
X144060000Y-151270000D03*
D15*
X144060000Y-153810000D03*
%TD*%
D10*
%TO.C,C6*%
X149230000Y-125870000D03*
X147680000Y-125870000D03*
%TD*%
D17*
%TO.C,TP5*%
X161360000Y-122150000D03*
%TD*%
D16*
%TO.C,R14*%
X144530000Y-123370000D03*
X146180000Y-123370000D03*
%TD*%
%TO.C,R11*%
X148970000Y-135020000D03*
X150620000Y-135020000D03*
%TD*%
D18*
%TO.C,D1*%
X111375000Y-128000000D03*
X111375000Y-126100000D03*
X109500000Y-127050000D03*
%TD*%
D11*
%TO.C,R6*%
X128680000Y-109800000D03*
X128680000Y-108150000D03*
%TD*%
D19*
%TO.C,FB1*%
X109700000Y-122300000D03*
X111275000Y-122300000D03*
%TD*%
D17*
%TO.C,TP2*%
X155400000Y-147000000D03*
%TD*%
%TO.C,TP3*%
X154800000Y-139600000D03*
%TD*%
D10*
%TO.C,C3*%
X149230000Y-109270000D03*
X147680000Y-109270000D03*
%TD*%
D20*
%TO.C,J6*%
X123575000Y-136980000D03*
D21*
X121035000Y-136980000D03*
%TD*%
D16*
%TO.C,R8*%
X149150000Y-153800000D03*
X150800000Y-153800000D03*
%TD*%
D14*
%TO.C,J2*%
X144100000Y-144935000D03*
D15*
X144100000Y-147475000D03*
%TD*%
D22*
%TO.C,U1*%
X124060000Y-120940000D03*
X124710000Y-120940000D03*
X125360000Y-120940000D03*
X126010000Y-120940000D03*
X126660000Y-120940000D03*
X127310000Y-120940000D03*
X127960000Y-120940000D03*
X128610000Y-120940000D03*
X129260000Y-120940000D03*
X129910000Y-120940000D03*
X130560000Y-120940000D03*
X131210000Y-120940000D03*
X131860000Y-120940000D03*
X132510000Y-120940000D03*
X132510000Y-113740000D03*
X131860000Y-113740000D03*
X131210000Y-113740000D03*
X130560000Y-113740000D03*
X129910000Y-113740000D03*
X129260000Y-113740000D03*
X128610000Y-113740000D03*
X127960000Y-113740000D03*
X127310000Y-113740000D03*
X126660000Y-113740000D03*
X126010000Y-113740000D03*
X125360000Y-113740000D03*
X124710000Y-113740000D03*
X124060000Y-113740000D03*
%TD*%
D17*
%TO.C,TP7*%
X161010000Y-116850000D03*
%TD*%
D23*
%TO.C,J8*%
X105150000Y-121670000D03*
D24*
X105150000Y-127670000D03*
D23*
X105150000Y-127670000D03*
D25*
X106250000Y-121570000D03*
X106250000Y-122320000D03*
D26*
X106250000Y-122920000D03*
X106250000Y-124420000D03*
X106250000Y-125420000D03*
X106250000Y-126420000D03*
D25*
X106250000Y-127770000D03*
X106250000Y-127020000D03*
D26*
X106250000Y-125920000D03*
X106250000Y-124920000D03*
X106250000Y-123920000D03*
X106250000Y-123420000D03*
D27*
X105875000Y-120350000D03*
D28*
X102050000Y-120350000D03*
D29*
X102050000Y-123270000D03*
X102050000Y-126070000D03*
D27*
X105875000Y-128990000D03*
D28*
X102050000Y-128990000D03*
%TD*%
D30*
%TO.C,J9*%
X105150000Y-137900000D03*
D15*
X105150000Y-135360000D03*
%TD*%
D16*
%TO.C,R13*%
X144530000Y-117270000D03*
X146180000Y-117270000D03*
%TD*%
D11*
%TO.C,R3*%
X138500000Y-141195000D03*
X138500000Y-139545000D03*
%TD*%
D10*
%TO.C,C4*%
X149230000Y-114770000D03*
X147680000Y-114770000D03*
%TD*%
D31*
%TO.C,C_AVDD_2*%
X121650000Y-123430000D03*
X119750000Y-123430000D03*
%TD*%
D32*
%TO.C,H1*%
X103500000Y-104000000D03*
%TD*%
D16*
%TO.C,R15*%
X144530000Y-128170000D03*
X146180000Y-128170000D03*
%TD*%
%TO.C,R12*%
X144630000Y-111370000D03*
X146280000Y-111370000D03*
%TD*%
%TO.C,R9*%
X148960000Y-147475000D03*
X150610000Y-147475000D03*
%TD*%
D14*
%TO.C,J4*%
X144100000Y-132470000D03*
D15*
X144100000Y-135010000D03*
%TD*%
D10*
%TO.C,C1*%
X111250000Y-119300000D03*
X109700000Y-119300000D03*
%TD*%
D16*
%TO.C,R17*%
X114000000Y-125600000D03*
X115650000Y-125600000D03*
%TD*%
D11*
%TO.C,R5*%
X136310000Y-109925000D03*
X136310000Y-108275000D03*
%TD*%
D16*
%TO.C,R10*%
X149130000Y-141210000D03*
X150780000Y-141210000D03*
%TD*%
D12*
%TO.C,JP2*%
X111400000Y-145300000D03*
D13*
X111400000Y-144000000D03*
%TD*%
D32*
%TO.C,H2*%
X161500000Y-104000000D03*
%TD*%
D33*
%TO.C,C_FILT1*%
X124610000Y-124490000D03*
X124610000Y-126040000D03*
%TD*%
D11*
%TO.C,R4*%
X138500000Y-135050000D03*
X138500000Y-133400000D03*
%TD*%
D17*
%TO.C,TP6*%
X161220000Y-128370000D03*
%TD*%
%TO.C,TP1*%
X154800000Y-153200000D03*
%TD*%
D14*
%TO.C,J3*%
X144100000Y-138680000D03*
D15*
X144100000Y-141220000D03*
%TD*%
D20*
%TO.C,J5*%
X127400000Y-151900000D03*
D21*
X124860000Y-151900000D03*
X122320000Y-151900000D03*
X119780000Y-151900000D03*
X117240000Y-151900000D03*
%TD*%
D32*
%TO.C,H4*%
X161500000Y-153000000D03*
%TD*%
D33*
%TO.C,C_FILT2*%
X127210000Y-124490000D03*
X127210000Y-126040000D03*
%TD*%
%TO.C,C_FILT3*%
X129710000Y-124490000D03*
X129710000Y-126040000D03*
%TD*%
D17*
%TO.C,TP8*%
X161390000Y-111790000D03*
%TD*%
D34*
%TO.C,C_DVDD_1*%
X131800000Y-110975000D03*
X131800000Y-109425000D03*
%TD*%
D11*
%TO.C,R1*%
X138460000Y-153870000D03*
X138460000Y-152220000D03*
%TD*%
%TO.C,R7*%
X126140000Y-109850000D03*
X126140000Y-108200000D03*
%TD*%
D33*
%TO.C,C_FILT4*%
X131800000Y-124600000D03*
X131800000Y-126150000D03*
%TD*%
D17*
%TO.C,TP4*%
X154600000Y-133400000D03*
%TD*%
D32*
%TO.C,H3*%
X103500000Y-153000000D03*
%TD*%
D35*
%TO.C,J_RPI1*%
X108375000Y-102750000D03*
D36*
X108375000Y-105290000D03*
X110915000Y-102750000D03*
X110915000Y-105290000D03*
X113455000Y-102750000D03*
X113455000Y-105290000D03*
X115995000Y-102750000D03*
X115995000Y-105290000D03*
X118535000Y-102750000D03*
X118535000Y-105290000D03*
X121075000Y-102750000D03*
X121075000Y-105290000D03*
X123615000Y-102750000D03*
X123615000Y-105290000D03*
X126155000Y-102750000D03*
X126155000Y-105290000D03*
X128695000Y-102750000D03*
X128695000Y-105290000D03*
X131235000Y-102750000D03*
X131235000Y-105290000D03*
X133775000Y-102750000D03*
X133775000Y-105290000D03*
X136315000Y-102750000D03*
X136315000Y-105290000D03*
X138855000Y-102750000D03*
X138855000Y-105290000D03*
X141395000Y-102750000D03*
X141395000Y-105290000D03*
X143935000Y-102750000D03*
X143935000Y-105290000D03*
X146475000Y-102750000D03*
X146475000Y-105290000D03*
X149015000Y-102750000D03*
X149015000Y-105290000D03*
X151555000Y-102750000D03*
X151555000Y-105290000D03*
X154095000Y-102750000D03*
X154095000Y-105290000D03*
X156635000Y-102750000D03*
X156635000Y-105290000D03*
%TD*%
M02*
