%TF.GenerationSoftware,KiCad,Pcbnew,9.0.3*%
%TF.CreationDate,2026-03-17T14:58:35+00:00*%
%TF.ProjectId,DigitSynth,44696769-7453-4796-9e74-682e6b696361,rev?*%
%TF.SameCoordinates,Original*%
%TF.FileFunction,Copper,L1,Top*%
%TF.FilePolarity,Positive*%
%FSLAX46Y46*%
G04 Gerber Fmt 4.6, Leading zero omitted, Abs format (unit mm)*
G04 Created by KiCad (PCBNEW 9.0.3) date 2026-03-17 14:58:35*
%MOMM*%
%LPD*%
G01*
G04 APERTURE LIST*
G04 Aperture macros list*
%AMRoundRect*
0 Rectangle with rounded corners*
0 $1 Rounding radius*
0 $2 $3 $4 $5 $6 $7 $8 $9 X,Y pos of 4 corners*
0 Add a 4 corners polygon primitive as box body*
4,1,4,$2,$3,$4,$5,$6,$7,$8,$9,$2,$3,0*
0 Add four circle primitives for the rounded corners*
1,1,$1+$1,$2,$3*
1,1,$1+$1,$4,$5*
1,1,$1+$1,$6,$7*
1,1,$1+$1,$8,$9*
0 Add four rect primitives between the rounded corners*
20,1,$1+$1,$2,$3,$4,$5,0*
20,1,$1+$1,$4,$5,$6,$7,0*
20,1,$1+$1,$6,$7,$8,$9,0*
20,1,$1+$1,$8,$9,$2,$3,0*%
%AMFreePoly0*
4,1,23,0.500000,-0.750000,0.000000,-0.750000,0.000000,-0.745722,-0.065263,-0.745722,-0.191342,-0.711940,-0.304381,-0.646677,-0.396677,-0.554381,-0.461940,-0.441342,-0.495722,-0.315263,-0.495722,-0.250000,-0.500000,-0.250000,-0.500000,0.250000,-0.495722,0.250000,-0.495722,0.315263,-0.461940,0.441342,-0.396677,0.554381,-0.304381,0.646677,-0.191342,0.711940,-0.065263,0.745722,0.000000,0.745722,
0.000000,0.750000,0.500000,0.750000,0.500000,-0.750000,0.500000,-0.750000,$1*%
%AMFreePoly1*
4,1,23,0.000000,0.745722,0.065263,0.745722,0.191342,0.711940,0.304381,0.646677,0.396677,0.554381,0.461940,0.441342,0.495722,0.315263,0.495722,0.250000,0.500000,0.250000,0.500000,-0.250000,0.495722,-0.250000,0.495722,-0.315263,0.461940,-0.441342,0.396677,-0.554381,0.304381,-0.646677,0.191342,-0.711940,0.065263,-0.745722,0.000000,-0.745722,0.000000,-0.750000,-0.500000,-0.750000,
-0.500000,0.750000,0.000000,0.750000,0.000000,0.745722,0.000000,0.745722,$1*%
G04 Aperture macros list end*
%TA.AperFunction,SMDPad,CuDef*%
%ADD10RoundRect,0.225000X0.225000X0.250000X-0.225000X0.250000X-0.225000X-0.250000X0.225000X-0.250000X0*%
%TD*%
%TA.AperFunction,SMDPad,CuDef*%
%ADD11RoundRect,0.200000X0.275000X-0.200000X0.275000X0.200000X-0.275000X0.200000X-0.275000X-0.200000X0*%
%TD*%
%TA.AperFunction,SMDPad,CuDef*%
%ADD12FreePoly0,90.000000*%
%TD*%
%TA.AperFunction,SMDPad,CuDef*%
%ADD13FreePoly1,90.000000*%
%TD*%
%TA.AperFunction,ComponentPad*%
%ADD14RoundRect,0.250000X-0.845000X0.620000X-0.845000X-0.620000X0.845000X-0.620000X0.845000X0.620000X0*%
%TD*%
%TA.AperFunction,ComponentPad*%
%ADD15O,2.190000X1.740000*%
%TD*%
%TA.AperFunction,SMDPad,CuDef*%
%ADD16RoundRect,0.200000X-0.200000X-0.275000X0.200000X-0.275000X0.200000X0.275000X-0.200000X0.275000X0*%
%TD*%
%TA.AperFunction,ComponentPad*%
%ADD17C,1.000000*%
%TD*%
%TA.AperFunction,SMDPad,CuDef*%
%ADD18RoundRect,0.150000X0.587500X0.150000X-0.587500X0.150000X-0.587500X-0.150000X0.587500X-0.150000X0*%
%TD*%
%TA.AperFunction,SMDPad,CuDef*%
%ADD19RoundRect,0.218750X-0.218750X-0.256250X0.218750X-0.256250X0.218750X0.256250X-0.218750X0.256250X0*%
%TD*%
%TA.AperFunction,ComponentPad*%
%ADD20RoundRect,0.250000X0.620000X0.845000X-0.620000X0.845000X-0.620000X-0.845000X0.620000X-0.845000X0*%
%TD*%
%TA.AperFunction,ComponentPad*%
%ADD21O,1.740000X2.190000*%
%TD*%
%TA.AperFunction,SMDPad,CuDef*%
%ADD22R,0.450000X1.750000*%
%TD*%
%TA.AperFunction,SMDPad,CuDef*%
%ADD23R,1.000000X0.520000*%
%TD*%
%TA.AperFunction,SMDPad,CuDef*%
%ADD24R,1.000000X0.270000*%
%TD*%
%TA.AperFunction,ComponentPad*%
%ADD25O,2.316000X1.158000*%
%TD*%
%TA.AperFunction,ComponentPad*%
%ADD26O,2.400000X1.200000*%
%TD*%
%TA.AperFunction,SMDPad,CuDef*%
%ADD27R,2.000000X1.000000*%
%TD*%
%TA.AperFunction,ComponentPad*%
%ADD28RoundRect,0.250000X0.845000X-0.620000X0.845000X0.620000X-0.845000X0.620000X-0.845000X-0.620000X0*%
%TD*%
%TA.AperFunction,SMDPad,CuDef*%
%ADD29RoundRect,0.250000X0.250000X0.475000X-0.250000X0.475000X-0.250000X-0.475000X0.250000X-0.475000X0*%
%TD*%
%TA.AperFunction,SMDPad,CuDef*%
%ADD30RoundRect,0.225000X-0.250000X0.225000X-0.250000X-0.225000X0.250000X-0.225000X0.250000X0.225000X0*%
%TD*%
%TA.AperFunction,SMDPad,CuDef*%
%ADD31RoundRect,0.225000X0.250000X-0.225000X0.250000X0.225000X-0.250000X0.225000X-0.250000X-0.225000X0*%
%TD*%
%TA.AperFunction,ComponentPad*%
%ADD32R,1.700000X1.700000*%
%TD*%
%TA.AperFunction,ComponentPad*%
%ADD33C,1.700000*%
%TD*%
%TA.AperFunction,ViaPad*%
%ADD34C,0.600000*%
%TD*%
%TA.AperFunction,Conductor*%
%ADD35C,0.400000*%
%TD*%
%TA.AperFunction,Conductor*%
%ADD36C,0.200000*%
%TD*%
G04 APERTURE END LIST*
D10*
%TO.P,C_AVDD_1,1*%
%TO.N,+5V_PI*%
X121710000Y-120930000D03*
%TO.P,C_AVDD_1,2*%
%TO.N,GND*%
X120160000Y-120930000D03*
%TD*%
D11*
%TO.P,R2,1*%
%TO.N,/ADC Flex/FLEX2_V*%
X138500000Y-147450000D03*
%TO.P,R2,2*%
%TO.N,Net-(U1-AIN1)*%
X138500000Y-145800000D03*
%TD*%
D12*
%TO.P,JP1,1,A*%
%TO.N,Net-(J5-Pin_5)*%
X105520000Y-145030000D03*
D13*
%TO.P,JP1,2,B*%
%TO.N,+5V_EXT*%
X105520000Y-143730000D03*
%TD*%
D10*
%TO.P,C5,1*%
%TO.N,/ADC Flex/BTN_3*%
X149030000Y-120970000D03*
%TO.P,C5,2*%
%TO.N,GND*%
X147480000Y-120970000D03*
%TD*%
D14*
%TO.P,J7,1,Pin_1*%
%TO.N,/ADC Flex/BTN_1*%
X154480000Y-110820000D03*
D15*
%TO.P,J7,2,Pin_2*%
%TO.N,GND*%
X154480000Y-113360000D03*
%TO.P,J7,3,Pin_3*%
%TO.N,/ADC Flex/BTN_2*%
X154480000Y-115900000D03*
%TO.P,J7,4,Pin_4*%
%TO.N,GND*%
X154480000Y-118440000D03*
%TO.P,J7,5,Pin_5*%
%TO.N,/ADC Flex/BTN_3*%
X154480000Y-120980000D03*
%TO.P,J7,6,Pin_6*%
%TO.N,GND*%
X154480000Y-123520000D03*
%TO.P,J7,7,Pin_7*%
%TO.N,/ADC Flex/BTN_4*%
X154480000Y-126060000D03*
%TO.P,J7,8,Pin_8*%
%TO.N,GND*%
X154480000Y-128600000D03*
%TD*%
D16*
%TO.P,R16,1*%
%TO.N,Net-(J8-CC1)*%
X114000000Y-123090000D03*
%TO.P,R16,2*%
%TO.N,GND*%
X115650000Y-123090000D03*
%TD*%
D14*
%TO.P,J1,1,Pin_1*%
%TO.N,+5V_PI*%
X144060000Y-151270000D03*
D15*
%TO.P,J1,2,Pin_2*%
%TO.N,/ADC Flex/FLEX1_V*%
X144060000Y-153810000D03*
%TD*%
D10*
%TO.P,C6,1*%
%TO.N,/ADC Flex/BTN_4*%
X149230000Y-125870000D03*
%TO.P,C6,2*%
%TO.N,GND*%
X147680000Y-125870000D03*
%TD*%
D17*
%TO.P,TP5,1,1*%
%TO.N,/ADC Flex/BTN_3*%
X161360000Y-122150000D03*
%TD*%
D16*
%TO.P,R14,1*%
%TO.N,+3V3_PI*%
X144530000Y-123370000D03*
%TO.P,R14,2*%
%TO.N,/ADC Flex/BTN_3*%
X146180000Y-123370000D03*
%TD*%
%TO.P,R11,1*%
%TO.N,/ADC Flex/FLEX4_V*%
X148970000Y-135020000D03*
%TO.P,R11,2*%
%TO.N,GND*%
X150620000Y-135020000D03*
%TD*%
D18*
%TO.P,D1,1,A*%
%TO.N,GND*%
X111375000Y-128000000D03*
%TO.P,D1,2,NC*%
%TO.N,unconnected-(D1-NC-Pad2)*%
X111375000Y-126100000D03*
%TO.P,D1,3,K*%
%TO.N,Net-(D1-K)*%
X109500000Y-127050000D03*
%TD*%
D11*
%TO.P,R6,1*%
%TO.N,+3V3_PI*%
X128680000Y-109800000D03*
%TO.P,R6,2*%
%TO.N,/ADC Flex/ADC_RESET*%
X128680000Y-108150000D03*
%TD*%
D19*
%TO.P,FB1,1*%
%TO.N,Net-(D1-K)*%
X109700000Y-122300000D03*
%TO.P,FB1,2*%
%TO.N,+5V_EXT*%
X111275000Y-122300000D03*
%TD*%
D17*
%TO.P,TP2,1,1*%
%TO.N,/ADC Flex/FLEX2_V*%
X155400000Y-147000000D03*
%TD*%
%TO.P,TP3,1,1*%
%TO.N,/ADC Flex/FLEX3_V*%
X154800000Y-139600000D03*
%TD*%
D10*
%TO.P,C3,1*%
%TO.N,/ADC Flex/BTN_1*%
X149230000Y-109270000D03*
%TO.P,C3,2*%
%TO.N,GND*%
X147680000Y-109270000D03*
%TD*%
D20*
%TO.P,J6,1,Pin_1*%
%TO.N,SPI2_CLK*%
X123575000Y-136980000D03*
D21*
%TO.P,J6,2,Pin_2*%
%TO.N,SPI2_DATA*%
X121035000Y-136980000D03*
%TD*%
D16*
%TO.P,R8,1*%
%TO.N,/ADC Flex/FLEX1_V*%
X149150000Y-153800000D03*
%TO.P,R8,2*%
%TO.N,GND*%
X150800000Y-153800000D03*
%TD*%
D14*
%TO.P,J2,1,Pin_1*%
%TO.N,+5V_PI*%
X144100000Y-144935000D03*
D15*
%TO.P,J2,2,Pin_2*%
%TO.N,/ADC Flex/FLEX2_V*%
X144100000Y-147475000D03*
%TD*%
D22*
%TO.P,U1,1,AVDD*%
%TO.N,+5V_PI*%
X124060000Y-120940000D03*
%TO.P,U1,2,AGND*%
%TO.N,GND*%
X124710000Y-120940000D03*
%TO.P,U1,3,VREFN*%
X125360000Y-120940000D03*
%TO.P,U1,4,VREFP*%
%TO.N,+5V_PI*%
X126010000Y-120940000D03*
%TO.P,U1,5,AINCOM*%
%TO.N,GND*%
X126660000Y-120940000D03*
%TO.P,U1,6,AIN0*%
%TO.N,Net-(U1-AIN0)*%
X127310000Y-120940000D03*
%TO.P,U1,7,AIN1*%
%TO.N,Net-(U1-AIN1)*%
X127960000Y-120940000D03*
%TO.P,U1,8,AIN2*%
%TO.N,Net-(U1-AIN2)*%
X128610000Y-120940000D03*
%TO.P,U1,9,AIN3*%
%TO.N,Net-(U1-AIN3)*%
X129260000Y-120940000D03*
%TO.P,U1,10,AIN4*%
%TO.N,/ADC Flex/BTN_1*%
X129910000Y-120940000D03*
%TO.P,U1,11,AIN5*%
%TO.N,/ADC Flex/BTN_2*%
X130560000Y-120940000D03*
%TO.P,U1,12,AIN6*%
%TO.N,/ADC Flex/BTN_3*%
X131210000Y-120940000D03*
%TO.P,U1,13,AIN7*%
%TO.N,/ADC Flex/BTN_4*%
X131860000Y-120940000D03*
%TO.P,U1,14,~{SYNC}\u002C_~{PDWN}*%
%TO.N,/ADC Flex/ADC_SYNC_PDWN*%
X132510000Y-120940000D03*
%TO.P,U1,15,~{RESET}*%
%TO.N,/ADC Flex/ADC_RESET*%
X132510000Y-113740000D03*
%TO.P,U1,16,DVDD*%
%TO.N,+3V3_PI*%
X131860000Y-113740000D03*
%TO.P,U1,17,DGND*%
%TO.N,GND*%
X131210000Y-113740000D03*
%TO.P,U1,18,XTAL2*%
%TO.N,unconnected-(U1-XTAL2-Pad18)*%
X130560000Y-113740000D03*
%TO.P,U1,19,XTAL1/CLKIN*%
%TO.N,unconnected-(U1-XTAL1{slash}CLKIN-Pad19)*%
X129910000Y-113740000D03*
%TO.P,U1,20,~{CS}*%
%TO.N,/ADC Flex/ADC_CS*%
X129260000Y-113740000D03*
%TO.P,U1,21,~{DRDY}*%
%TO.N,/ADC Flex/ADC_DRDY*%
X128610000Y-113740000D03*
%TO.P,U1,22,DOUT*%
%TO.N,/ADC Flex/SPI0_MISO*%
X127960000Y-113740000D03*
%TO.P,U1,23,DIN*%
%TO.N,/ADC Flex/SPI0_MOSI*%
X127310000Y-113740000D03*
%TO.P,U1,24,SCLK*%
%TO.N,/ADC Flex/SPI0_SCLK*%
X126660000Y-113740000D03*
%TO.P,U1,25,D0/CLKOUT*%
%TO.N,unconnected-(U1-D0{slash}CLKOUT-Pad25)*%
X126010000Y-113740000D03*
%TO.P,U1,26,D1*%
%TO.N,unconnected-(U1-D1-Pad26)*%
X125360000Y-113740000D03*
%TO.P,U1,27,D2*%
%TO.N,unconnected-(U1-D2-Pad27)*%
X124710000Y-113740000D03*
%TO.P,U1,28,D3*%
%TO.N,unconnected-(U1-D3-Pad28)*%
X124060000Y-113740000D03*
%TD*%
D17*
%TO.P,TP7,1,1*%
%TO.N,/ADC Flex/BTN_2*%
X161010000Y-116850000D03*
%TD*%
D23*
%TO.P,J8,A1,GND*%
%TO.N,GND*%
X106250000Y-121570000D03*
%TO.P,J8,A4,VBUS*%
%TO.N,Net-(D1-K)*%
X106250000Y-122320000D03*
D24*
%TO.P,J8,A5,CC1*%
%TO.N,Net-(J8-CC1)*%
X106250000Y-122920000D03*
%TO.P,J8,A6,D+*%
%TO.N,unconnected-(J8-D+-PadA6)*%
X106250000Y-124420000D03*
%TO.P,J8,A7,D-*%
%TO.N,unconnected-(J8-D--PadA7)*%
X106250000Y-125420000D03*
%TO.P,J8,A8,SBU1*%
%TO.N,unconnected-(J8-SBU1-PadA8)*%
X106250000Y-126420000D03*
D23*
%TO.P,J8,A12,GND*%
%TO.N,GND*%
X106250000Y-127770000D03*
%TO.P,J8,B4,VBUS*%
%TO.N,Net-(D1-K)*%
X106250000Y-127020000D03*
D24*
%TO.P,J8,B5,CC2*%
%TO.N,Net-(J8-CC2)*%
X106250000Y-125920000D03*
%TO.P,J8,B6,D+*%
%TO.N,unconnected-(J8-D+-PadB6)*%
X106250000Y-124920000D03*
%TO.P,J8,B7,D-*%
%TO.N,unconnected-(J8-D--PadB7)*%
X106250000Y-123920000D03*
%TO.P,J8,B8,SBU2*%
%TO.N,unconnected-(J8-SBU2-PadB8)*%
X106250000Y-123420000D03*
D25*
%TO.P,J8,S1,SHIELD*%
%TO.N,GND*%
X105875000Y-120350000D03*
D26*
X102050000Y-120350000D03*
D27*
X102050000Y-123270000D03*
X102050000Y-126070000D03*
D25*
X105875000Y-128990000D03*
D26*
X102050000Y-128990000D03*
%TD*%
D28*
%TO.P,J9,1,Pin_1*%
%TO.N,+5V_EXT*%
X105150000Y-137900000D03*
D15*
%TO.P,J9,2,Pin_2*%
%TO.N,GND*%
X105150000Y-135360000D03*
%TD*%
D16*
%TO.P,R13,1*%
%TO.N,+3V3_PI*%
X144530000Y-117270000D03*
%TO.P,R13,2*%
%TO.N,/ADC Flex/BTN_2*%
X146180000Y-117270000D03*
%TD*%
D11*
%TO.P,R3,1*%
%TO.N,/ADC Flex/FLEX3_V*%
X138500000Y-141195000D03*
%TO.P,R3,2*%
%TO.N,Net-(U1-AIN2)*%
X138500000Y-139545000D03*
%TD*%
D10*
%TO.P,C4,1*%
%TO.N,/ADC Flex/BTN_2*%
X149230000Y-114770000D03*
%TO.P,C4,2*%
%TO.N,GND*%
X147680000Y-114770000D03*
%TD*%
D29*
%TO.P,C_AVDD_2,1*%
%TO.N,+5V_PI*%
X121650000Y-123430000D03*
%TO.P,C_AVDD_2,2*%
%TO.N,GND*%
X119750000Y-123430000D03*
%TD*%
D16*
%TO.P,R15,1*%
%TO.N,+3V3_PI*%
X144530000Y-128170000D03*
%TO.P,R15,2*%
%TO.N,/ADC Flex/BTN_4*%
X146180000Y-128170000D03*
%TD*%
%TO.P,R12,1*%
%TO.N,+3V3_PI*%
X144630000Y-111370000D03*
%TO.P,R12,2*%
%TO.N,/ADC Flex/BTN_1*%
X146280000Y-111370000D03*
%TD*%
%TO.P,R9,1*%
%TO.N,/ADC Flex/FLEX2_V*%
X148960000Y-147475000D03*
%TO.P,R9,2*%
%TO.N,GND*%
X150610000Y-147475000D03*
%TD*%
D14*
%TO.P,J4,1,Pin_1*%
%TO.N,+5V_PI*%
X144100000Y-132470000D03*
D15*
%TO.P,J4,2,Pin_2*%
%TO.N,/ADC Flex/FLEX4_V*%
X144100000Y-135010000D03*
%TD*%
D10*
%TO.P,C1,1*%
%TO.N,+5V_EXT*%
X111250000Y-119300000D03*
%TO.P,C1,2*%
%TO.N,GND*%
X109700000Y-119300000D03*
%TD*%
D16*
%TO.P,R17,1*%
%TO.N,Net-(J8-CC2)*%
X114000000Y-125600000D03*
%TO.P,R17,2*%
%TO.N,GND*%
X115650000Y-125600000D03*
%TD*%
D11*
%TO.P,R5,1*%
%TO.N,+3V3_PI*%
X136310000Y-109925000D03*
%TO.P,R5,2*%
%TO.N,/ADC Flex/ADC_CS*%
X136310000Y-108275000D03*
%TD*%
D16*
%TO.P,R10,1*%
%TO.N,/ADC Flex/FLEX3_V*%
X149130000Y-141210000D03*
%TO.P,R10,2*%
%TO.N,GND*%
X150780000Y-141210000D03*
%TD*%
D12*
%TO.P,JP2,1,A*%
%TO.N,Net-(J5-Pin_5)*%
X111400000Y-145300000D03*
D13*
%TO.P,JP2,2,B*%
%TO.N,+5V_PI*%
X111400000Y-144000000D03*
%TD*%
D30*
%TO.P,C_FILT1,1*%
%TO.N,Net-(U1-AIN0)*%
X124610000Y-124490000D03*
%TO.P,C_FILT1,2*%
%TO.N,GND*%
X124610000Y-126040000D03*
%TD*%
D11*
%TO.P,R4,1*%
%TO.N,/ADC Flex/FLEX4_V*%
X138500000Y-135050000D03*
%TO.P,R4,2*%
%TO.N,Net-(U1-AIN3)*%
X138500000Y-133400000D03*
%TD*%
D17*
%TO.P,TP6,1,1*%
%TO.N,/ADC Flex/BTN_4*%
X161220000Y-128370000D03*
%TD*%
%TO.P,TP1,1,1*%
%TO.N,/ADC Flex/FLEX1_V*%
X154800000Y-153200000D03*
%TD*%
D14*
%TO.P,J3,1,Pin_1*%
%TO.N,+5V_PI*%
X144100000Y-138680000D03*
D15*
%TO.P,J3,2,Pin_2*%
%TO.N,/ADC Flex/FLEX3_V*%
X144100000Y-141220000D03*
%TD*%
D20*
%TO.P,J5,1,Pin_1*%
%TO.N,GND*%
X127400000Y-151900000D03*
D21*
%TO.P,J5,2,Pin_2*%
%TO.N,SPI2_CLK*%
X124860000Y-151900000D03*
%TO.P,J5,3,Pin_3*%
%TO.N,SPI2_DATA*%
X122320000Y-151900000D03*
%TO.P,J5,4,Pin_4*%
%TO.N,+3V3_PI*%
X119780000Y-151900000D03*
%TO.P,J5,5,Pin_5*%
%TO.N,Net-(J5-Pin_5)*%
X117240000Y-151900000D03*
%TD*%
D30*
%TO.P,C_FILT2,1*%
%TO.N,Net-(U1-AIN1)*%
X127210000Y-124490000D03*
%TO.P,C_FILT2,2*%
%TO.N,GND*%
X127210000Y-126040000D03*
%TD*%
%TO.P,C_FILT3,1*%
%TO.N,Net-(U1-AIN2)*%
X129710000Y-124490000D03*
%TO.P,C_FILT3,2*%
%TO.N,GND*%
X129710000Y-126040000D03*
%TD*%
D17*
%TO.P,TP8,1,1*%
%TO.N,/ADC Flex/BTN_1*%
X161390000Y-111790000D03*
%TD*%
D31*
%TO.P,C_DVDD_1,1*%
%TO.N,+3V3_PI*%
X131800000Y-110975000D03*
%TO.P,C_DVDD_1,2*%
%TO.N,GND*%
X131800000Y-109425000D03*
%TD*%
D11*
%TO.P,R1,1*%
%TO.N,/ADC Flex/FLEX1_V*%
X138460000Y-153870000D03*
%TO.P,R1,2*%
%TO.N,Net-(U1-AIN0)*%
X138460000Y-152220000D03*
%TD*%
%TO.P,R7,1*%
%TO.N,+3V3_PI*%
X126140000Y-109850000D03*
%TO.P,R7,2*%
%TO.N,/ADC Flex/ADC_SYNC_PDWN*%
X126140000Y-108200000D03*
%TD*%
D30*
%TO.P,C_FILT4,1*%
%TO.N,Net-(U1-AIN3)*%
X131800000Y-124600000D03*
%TO.P,C_FILT4,2*%
%TO.N,GND*%
X131800000Y-126150000D03*
%TD*%
D17*
%TO.P,TP4,1,1*%
%TO.N,/ADC Flex/FLEX4_V*%
X154600000Y-133400000D03*
%TD*%
D32*
%TO.P,J_RPI1,1,Pin_1*%
%TO.N,+3V3_PI*%
X108375000Y-102750000D03*
D33*
%TO.P,J_RPI1,2,Pin_2*%
%TO.N,+5V_PI*%
X108375000Y-105290000D03*
%TO.P,J_RPI1,3,Pin_3*%
%TO.N,/Raspberry PI Interface/GPIO2*%
X110915000Y-102750000D03*
%TO.P,J_RPI1,4,Pin_4*%
%TO.N,+5V_PI*%
X110915000Y-105290000D03*
%TO.P,J_RPI1,5,Pin_5*%
%TO.N,/Raspberry PI Interface/GPIO3*%
X113455000Y-102750000D03*
%TO.P,J_RPI1,6,Pin_6*%
%TO.N,GND*%
X113455000Y-105290000D03*
%TO.P,J_RPI1,7,Pin_7*%
%TO.N,/Raspberry PI Interface/GPIO4*%
X115995000Y-102750000D03*
%TO.P,J_RPI1,8,Pin_8*%
%TO.N,/Raspberry PI Interface/GPIO14*%
X115995000Y-105290000D03*
%TO.P,J_RPI1,9,Pin_9*%
%TO.N,GND*%
X118535000Y-102750000D03*
%TO.P,J_RPI1,10,Pin_10*%
%TO.N,/Raspberry PI Interface/GPIO15*%
X118535000Y-105290000D03*
%TO.P,J_RPI1,11,Pin_11*%
%TO.N,unconnected-(J_RPI1-Pin_11-Pad11)*%
X121075000Y-102750000D03*
%TO.P,J_RPI1,12,Pin_12*%
%TO.N,/Raspberry PI Interface/GPIO18*%
X121075000Y-105290000D03*
%TO.P,J_RPI1,13,Pin_13*%
%TO.N,unconnected-(J_RPI1-Pin_13-Pad13)*%
X123615000Y-102750000D03*
%TO.P,J_RPI1,14,Pin_14*%
%TO.N,GND*%
X123615000Y-105290000D03*
%TO.P,J_RPI1,15,Pin_15*%
%TO.N,unconnected-(J_RPI1-Pin_15-Pad15)*%
X126155000Y-102750000D03*
%TO.P,J_RPI1,16,Pin_16*%
%TO.N,/ADC Flex/ADC_SYNC_PDWN*%
X126155000Y-105290000D03*
%TO.P,J_RPI1,17,Pin_17*%
%TO.N,+3V3_PI*%
X128695000Y-102750000D03*
%TO.P,J_RPI1,18,Pin_18*%
%TO.N,/ADC Flex/ADC_RESET*%
X128695000Y-105290000D03*
%TO.P,J_RPI1,19,Pin_19*%
%TO.N,/ADC Flex/SPI0_MOSI*%
X131235000Y-102750000D03*
%TO.P,J_RPI1,20,Pin_20*%
%TO.N,GND*%
X131235000Y-105290000D03*
%TO.P,J_RPI1,21,Pin_21*%
%TO.N,/ADC Flex/SPI0_MISO*%
X133775000Y-102750000D03*
%TO.P,J_RPI1,22,Pin_22*%
%TO.N,/ADC Flex/ADC_DRDY*%
X133775000Y-105290000D03*
%TO.P,J_RPI1,23,Pin_23*%
%TO.N,/ADC Flex/SPI0_SCLK*%
X136315000Y-102750000D03*
%TO.P,J_RPI1,24,Pin_24*%
%TO.N,/ADC Flex/ADC_CS*%
X136315000Y-105290000D03*
%TO.P,J_RPI1,25,Pin_25*%
%TO.N,GND*%
X138855000Y-102750000D03*
%TO.P,J_RPI1,26,Pin_26*%
%TO.N,unconnected-(J_RPI1-Pin_26-Pad26)*%
X138855000Y-105290000D03*
%TO.P,J_RPI1,27,Pin_27*%
%TO.N,/Raspberry PI Interface/ID_SD*%
X141395000Y-102750000D03*
%TO.P,J_RPI1,28,Pin_28*%
%TO.N,/Raspberry PI Interface/ID_SC*%
X141395000Y-105290000D03*
%TO.P,J_RPI1,29,Pin_29*%
%TO.N,unconnected-(J_RPI1-Pin_29-Pad29)*%
X143935000Y-102750000D03*
%TO.P,J_RPI1,30,Pin_30*%
%TO.N,GND*%
X143935000Y-105290000D03*
%TO.P,J_RPI1,31,Pin_31*%
%TO.N,/Raspberry PI Interface/GPIO6*%
X146475000Y-102750000D03*
%TO.P,J_RPI1,32,Pin_32*%
%TO.N,/Raspberry PI Interface/GPIO12*%
X146475000Y-105290000D03*
%TO.P,J_RPI1,33,Pin_33*%
%TO.N,/Raspberry PI Interface/GPIO13*%
X149015000Y-102750000D03*
%TO.P,J_RPI1,34,Pin_34*%
%TO.N,GND*%
X149015000Y-105290000D03*
%TO.P,J_RPI1,35,Pin_35*%
%TO.N,/Raspberry PI Interface/GPIO19*%
X151555000Y-102750000D03*
%TO.P,J_RPI1,36,Pin_36*%
%TO.N,/Raspberry PI Interface/GPIO16*%
X151555000Y-105290000D03*
%TO.P,J_RPI1,37,Pin_37*%
%TO.N,/Raspberry PI Interface/GPIO26*%
X154095000Y-102750000D03*
%TO.P,J_RPI1,38,Pin_38*%
%TO.N,/Raspberry PI Interface/GPIO20*%
X154095000Y-105290000D03*
%TO.P,J_RPI1,39,Pin_39*%
%TO.N,GND*%
X156635000Y-102750000D03*
%TO.P,J_RPI1,40,Pin_40*%
%TO.N,/Raspberry PI Interface/GPIO21*%
X156635000Y-105290000D03*
%TD*%
D34*
%TO.N,GND*%
X147600000Y-119000000D03*
X130500000Y-107600000D03*
X152200000Y-142000000D03*
X112800000Y-128000000D03*
X128900000Y-115400000D03*
X133800000Y-107600000D03*
X147800000Y-124400000D03*
X129800000Y-127400000D03*
X124600000Y-119000000D03*
X152000000Y-148055000D03*
X115600000Y-126800000D03*
X152000000Y-135740000D03*
X147800000Y-113200000D03*
X127200000Y-127400000D03*
X126600000Y-118600000D03*
X119600000Y-125200000D03*
X151560000Y-152400000D03*
X124600000Y-127400000D03*
X132600000Y-127400000D03*
X131200000Y-115400000D03*
%TO.N,+3V3_PI*%
X130400000Y-111600000D03*
X143200000Y-115800000D03*
X143200000Y-112800000D03*
X143200000Y-127400000D03*
X143200000Y-122400000D03*
%TO.N,Net-(D1-K)*%
X108400000Y-121600000D03*
X107800000Y-126600000D03*
%TO.N,/ADC Flex/SPI0_SCLK*%
X126800000Y-115400000D03*
%TO.N,/ADC Flex/ADC_RESET*%
X133600000Y-111600000D03*
%TO.N,/ADC Flex/ADC_SYNC_PDWN*%
X134600000Y-120800000D03*
%TD*%
D35*
%TO.N,GND*%
X131210000Y-115390000D02*
X131200000Y-115400000D01*
X147680000Y-113320000D02*
X147800000Y-113200000D01*
X131800000Y-126150000D02*
X131800000Y-126600000D01*
X106250000Y-120725000D02*
X105875000Y-120350000D01*
X147680000Y-125870000D02*
X147680000Y-124520000D01*
X111375000Y-128000000D02*
X106480000Y-128000000D01*
X124710000Y-120940000D02*
X124710000Y-119110000D01*
X151420000Y-147475000D02*
X152000000Y-148055000D01*
X150780000Y-141210000D02*
X151410000Y-141210000D01*
X147680000Y-109270000D02*
X147680000Y-106625000D01*
X111375000Y-128000000D02*
X112800000Y-128000000D01*
X128900000Y-116300000D02*
X128900000Y-115400000D01*
X150610000Y-147475000D02*
X151420000Y-147475000D01*
X105875000Y-128605000D02*
X106480000Y-128000000D01*
X119750000Y-123430000D02*
X119750000Y-125050000D01*
X147680000Y-106625000D02*
X149015000Y-105290000D01*
X115650000Y-125600000D02*
X115650000Y-123090000D01*
X102050000Y-126070000D02*
X102050000Y-123270000D01*
X150620000Y-135020000D02*
X151280000Y-135020000D01*
X150800000Y-153800000D02*
X150800000Y-153160000D01*
X102050000Y-126070000D02*
X102050000Y-128990000D01*
X119750000Y-125050000D02*
X119600000Y-125200000D01*
X124710000Y-119110000D02*
X124600000Y-119000000D01*
X126600000Y-118600000D02*
X128900000Y-116300000D01*
X115650000Y-126750000D02*
X115600000Y-126800000D01*
X105875000Y-120350000D02*
X108650000Y-120350000D01*
X127210000Y-127390000D02*
X127200000Y-127400000D01*
X147480000Y-120970000D02*
X147480000Y-119120000D01*
X129710000Y-127310000D02*
X129800000Y-127400000D01*
X108650000Y-120350000D02*
X109700000Y-119300000D01*
X119750000Y-123430000D02*
X119750000Y-121340000D01*
X127210000Y-126040000D02*
X127210000Y-127390000D01*
X147680000Y-114770000D02*
X147680000Y-113320000D01*
X106250000Y-121570000D02*
X106250000Y-120725000D01*
X105875000Y-128990000D02*
X105875000Y-128605000D01*
X126660000Y-120940000D02*
X126660000Y-118660000D01*
X102050000Y-128990000D02*
X105875000Y-128990000D01*
X131210000Y-113740000D02*
X131210000Y-115390000D01*
X147480000Y-119120000D02*
X147600000Y-119000000D01*
X129710000Y-126040000D02*
X129710000Y-127310000D01*
X133800000Y-107600000D02*
X131975000Y-109425000D01*
X131235000Y-106865000D02*
X130500000Y-107600000D01*
X131800000Y-126600000D02*
X132600000Y-127400000D01*
X124610000Y-126040000D02*
X124610000Y-127390000D01*
X124710000Y-120940000D02*
X125360000Y-120940000D01*
X151280000Y-135020000D02*
X152000000Y-135740000D01*
X150800000Y-153160000D02*
X151560000Y-152400000D01*
X151410000Y-141210000D02*
X152200000Y-142000000D01*
X147680000Y-124520000D02*
X147800000Y-124400000D01*
X106480000Y-128000000D02*
X106250000Y-127770000D01*
X124610000Y-127390000D02*
X124600000Y-127400000D01*
X131975000Y-109425000D02*
X131800000Y-109425000D01*
X131235000Y-105290000D02*
X131235000Y-106865000D01*
X130500000Y-107600000D02*
X130500000Y-107684373D01*
X119750000Y-121340000D02*
X120160000Y-120930000D01*
X115650000Y-125600000D02*
X115650000Y-126750000D01*
X126660000Y-118660000D02*
X126600000Y-118600000D01*
%TO.N,+5V_EXT*%
X116800000Y-122000000D02*
X114100000Y-119300000D01*
X114100000Y-119300000D02*
X111250000Y-119300000D01*
X116800000Y-132450000D02*
X116800000Y-122000000D01*
X105520000Y-138270000D02*
X105150000Y-137900000D01*
X111275000Y-119325000D02*
X111250000Y-119300000D01*
X105520000Y-143730000D02*
X116800000Y-132450000D01*
X105520000Y-143730000D02*
X105520000Y-138270000D01*
X111275000Y-122300000D02*
X111275000Y-119325000D01*
D36*
%TO.N,/ADC Flex/BTN_1*%
X129910000Y-119890000D02*
X132000000Y-117800000D01*
X150780000Y-110820000D02*
X149230000Y-109270000D01*
X132000000Y-117800000D02*
X139850000Y-117800000D01*
X154480000Y-110820000D02*
X160420000Y-110820000D01*
X146280000Y-111370000D02*
X147130000Y-111370000D01*
X154480000Y-110820000D02*
X150780000Y-110820000D01*
X129910000Y-120940000D02*
X129910000Y-119890000D01*
X139850000Y-117800000D02*
X146280000Y-111370000D01*
X160420000Y-110820000D02*
X161390000Y-111790000D01*
X147130000Y-111370000D02*
X149230000Y-109270000D01*
%TO.N,/ADC Flex/BTN_2*%
X145050000Y-118400000D02*
X146180000Y-117270000D01*
X154480000Y-115900000D02*
X160060000Y-115900000D01*
X146730000Y-117270000D02*
X149230000Y-114770000D01*
X130560000Y-120940000D02*
X130560000Y-119865000D01*
X132025000Y-118400000D02*
X145050000Y-118400000D01*
X154480000Y-115900000D02*
X150360000Y-115900000D01*
X130560000Y-119865000D02*
X132025000Y-118400000D01*
X146180000Y-117270000D02*
X146730000Y-117270000D01*
X160060000Y-115900000D02*
X161010000Y-116850000D01*
X150360000Y-115900000D02*
X149230000Y-114770000D01*
%TO.N,/ADC Flex/BTN_3*%
X154480000Y-120980000D02*
X149040000Y-120980000D01*
X149040000Y-120980000D02*
X149030000Y-120970000D01*
X131210000Y-120940000D02*
X131210000Y-119888000D01*
X160190000Y-120980000D02*
X161360000Y-122150000D01*
X154480000Y-120980000D02*
X160190000Y-120980000D01*
X131210000Y-119888000D02*
X132098000Y-119000000D01*
X146630000Y-123370000D02*
X149030000Y-120970000D01*
X132098000Y-119000000D02*
X141810000Y-119000000D01*
X146180000Y-123370000D02*
X146630000Y-123370000D01*
X141810000Y-119000000D02*
X146180000Y-123370000D01*
%TO.N,/ADC Flex/BTN_4*%
X146180000Y-128170000D02*
X146930000Y-128170000D01*
X133868000Y-124000000D02*
X142010000Y-124000000D01*
X149420000Y-126060000D02*
X149230000Y-125870000D01*
X131860000Y-121992000D02*
X133868000Y-124000000D01*
X154480000Y-126060000D02*
X149420000Y-126060000D01*
X142010000Y-124000000D02*
X146180000Y-128170000D01*
X131860000Y-120940000D02*
X131860000Y-121992000D01*
X158910000Y-126060000D02*
X161220000Y-128370000D01*
X154480000Y-126060000D02*
X158910000Y-126060000D01*
X146930000Y-128170000D02*
X149230000Y-125870000D01*
D35*
%TO.N,+5V_PI*%
X124060000Y-122460000D02*
X124400000Y-122800000D01*
X118400000Y-137000000D02*
X111400000Y-144000000D01*
X124060000Y-120940000D02*
X124060000Y-122460000D01*
X124400000Y-122800000D02*
X125425000Y-122800000D01*
X125425000Y-122800000D02*
X126010000Y-122215000D01*
X117200000Y-111575000D02*
X118400000Y-112775000D01*
X110915000Y-105290000D02*
X117200000Y-111575000D01*
X118400000Y-112775000D02*
X118400000Y-137000000D01*
X121710000Y-120930000D02*
X121710000Y-116085000D01*
X126010000Y-122215000D02*
X126010000Y-120940000D01*
X121710000Y-120930000D02*
X124050000Y-120930000D01*
X121650000Y-120990000D02*
X121710000Y-120930000D01*
X108375000Y-105290000D02*
X110915000Y-105290000D01*
X121710000Y-116085000D02*
X117200000Y-111575000D01*
X121650000Y-123430000D02*
X121650000Y-120990000D01*
X124050000Y-120930000D02*
X124060000Y-120940000D01*
%TO.N,+3V3_PI*%
X114744000Y-104809818D02*
X114744000Y-105808182D01*
X144530000Y-117270000D02*
X144530000Y-117130000D01*
X109626000Y-101499000D02*
X108375000Y-102750000D01*
X131800000Y-110975000D02*
X131025000Y-110975000D01*
X118785818Y-109850000D02*
X126140000Y-109850000D01*
X131860000Y-113740000D02*
X131860000Y-111035000D01*
X144530000Y-123370000D02*
X144170000Y-123370000D01*
X137755000Y-111370000D02*
X136310000Y-109925000D01*
X137604000Y-102269818D02*
X136833182Y-101499000D01*
X136833182Y-101499000D02*
X129946000Y-101499000D01*
X144530000Y-128170000D02*
X143970000Y-128170000D01*
X144630000Y-111370000D02*
X137755000Y-111370000D01*
X144630000Y-111370000D02*
X143200000Y-112800000D01*
X108375000Y-102750000D02*
X109664000Y-104039000D01*
X143970000Y-128170000D02*
X143200000Y-127400000D01*
X126190000Y-109800000D02*
X126140000Y-109850000D01*
X131860000Y-111035000D02*
X131800000Y-110975000D01*
X128680000Y-109800000D02*
X126190000Y-109800000D01*
X144170000Y-123370000D02*
X143200000Y-122400000D01*
X127444000Y-108564000D02*
X127444000Y-104001000D01*
X114744000Y-105808182D02*
X118785818Y-109850000D01*
X136310000Y-109925000D02*
X137604000Y-108631000D01*
X137604000Y-108631000D02*
X137604000Y-102269818D01*
X131025000Y-110975000D02*
X130400000Y-111600000D01*
X127444000Y-101499000D02*
X109626000Y-101499000D01*
X128680000Y-109800000D02*
X127444000Y-108564000D01*
X127444000Y-104001000D02*
X128695000Y-102750000D01*
X129946000Y-101499000D02*
X128695000Y-102750000D01*
X109664000Y-104039000D02*
X113973182Y-104039000D01*
X113973182Y-104039000D02*
X114744000Y-104809818D01*
X128695000Y-102750000D02*
X127444000Y-101499000D01*
X144530000Y-117130000D02*
X143200000Y-115800000D01*
D36*
%TO.N,Net-(U1-AIN0)*%
X126434000Y-140194000D02*
X126434000Y-126314000D01*
X125085000Y-124490000D02*
X127310000Y-122265000D01*
X124610000Y-124490000D02*
X125085000Y-124490000D01*
X126434000Y-126314000D02*
X124610000Y-124490000D01*
X138460000Y-152220000D02*
X126434000Y-140194000D01*
X127310000Y-122265000D02*
X127310000Y-120940000D01*
%TO.N,Net-(U1-AIN1)*%
X128400000Y-125680000D02*
X127210000Y-124490000D01*
X127960000Y-123740000D02*
X127960000Y-120940000D01*
X138500000Y-145800000D02*
X128400000Y-135700000D01*
X127210000Y-124490000D02*
X127960000Y-123740000D01*
X128400000Y-135700000D02*
X128400000Y-125680000D01*
%TO.N,Net-(U1-AIN2)*%
X138500000Y-139545000D02*
X131024000Y-132069000D01*
X128610000Y-123390000D02*
X128610000Y-120940000D01*
X131024000Y-125804000D02*
X129710000Y-124490000D01*
X129710000Y-124490000D02*
X128610000Y-123390000D01*
X131024000Y-132069000D02*
X131024000Y-125804000D01*
%TO.N,Net-(U1-AIN3)*%
X131800000Y-124600000D02*
X129260000Y-122060000D01*
X138500000Y-131300000D02*
X131800000Y-124600000D01*
X138500000Y-133400000D02*
X138500000Y-131300000D01*
X129260000Y-122060000D02*
X129260000Y-120940000D01*
%TO.N,Net-(D1-K)*%
X108400000Y-121600000D02*
X107680000Y-122320000D01*
X106250000Y-127020000D02*
X107380000Y-127020000D01*
X107680000Y-122320000D02*
X106250000Y-122320000D01*
X109470000Y-127020000D02*
X109500000Y-127050000D01*
X106250000Y-122320000D02*
X109680000Y-122320000D01*
X107380000Y-127020000D02*
X107800000Y-126600000D01*
X109680000Y-122320000D02*
X109700000Y-122300000D01*
X106250000Y-127020000D02*
X109470000Y-127020000D01*
%TO.N,/ADC Flex/FLEX1_V*%
X149140000Y-153810000D02*
X149150000Y-153800000D01*
X144060000Y-153810000D02*
X149140000Y-153810000D01*
X151151000Y-151799000D02*
X153399000Y-151799000D01*
X138460000Y-153870000D02*
X144000000Y-153870000D01*
X153399000Y-151799000D02*
X154800000Y-153200000D01*
X149150000Y-153800000D02*
X151151000Y-151799000D01*
X144000000Y-153870000D02*
X144060000Y-153810000D01*
%TO.N,/ADC Flex/FLEX2_V*%
X148960000Y-147475000D02*
X149835000Y-146600000D01*
X138500000Y-147450000D02*
X144075000Y-147450000D01*
X144075000Y-147450000D02*
X144100000Y-147475000D01*
X149835000Y-146600000D02*
X155000000Y-146600000D01*
X155000000Y-146600000D02*
X155400000Y-147000000D01*
X144100000Y-147475000D02*
X148960000Y-147475000D01*
%TO.N,/ADC Flex/FLEX3_V*%
X150740000Y-139600000D02*
X154800000Y-139600000D01*
X144190000Y-141210000D02*
X149130000Y-141210000D01*
X144075000Y-141195000D02*
X144100000Y-141220000D01*
X144100000Y-141220000D02*
X144180000Y-141220000D01*
X149130000Y-141210000D02*
X150740000Y-139600000D01*
X138500000Y-141195000D02*
X144075000Y-141195000D01*
X144180000Y-141220000D02*
X144190000Y-141210000D01*
%TO.N,/ADC Flex/FLEX4_V*%
X148970000Y-135020000D02*
X150590000Y-133400000D01*
X144110000Y-135020000D02*
X144100000Y-135010000D01*
X144060000Y-135050000D02*
X144100000Y-135010000D01*
X148970000Y-135020000D02*
X144110000Y-135020000D01*
X138500000Y-135050000D02*
X144060000Y-135050000D01*
X150590000Y-133400000D02*
X154600000Y-133400000D01*
%TO.N,Net-(J5-Pin_5)*%
X111400000Y-146060000D02*
X117240000Y-151900000D01*
X108630000Y-145030000D02*
X108900000Y-145300000D01*
X108900000Y-145300000D02*
X111400000Y-145300000D01*
X105520000Y-145030000D02*
X108630000Y-145030000D01*
X111400000Y-145300000D02*
X111400000Y-146060000D01*
%TO.N,/ADC Flex/SPI0_MOSI*%
X129900000Y-109769064D02*
X129900000Y-104085000D01*
X127310000Y-112359064D02*
X129900000Y-109769064D01*
X129900000Y-104085000D02*
X131235000Y-102750000D01*
X127310000Y-113740000D02*
X127310000Y-112359064D01*
%TO.N,/ADC Flex/SPI0_SCLK*%
X126660000Y-113740000D02*
X126660000Y-115260000D01*
X126660000Y-115260000D02*
X126800000Y-115400000D01*
%TO.N,Net-(J8-CC1)*%
X112400000Y-123400000D02*
X112710000Y-123090000D01*
X112710000Y-123090000D02*
X114000000Y-123090000D01*
X108520000Y-122920000D02*
X109000000Y-123400000D01*
X106250000Y-122920000D02*
X108520000Y-122920000D01*
X109000000Y-123400000D02*
X112400000Y-123400000D01*
%TO.N,Net-(J8-CC2)*%
X108280000Y-125920000D02*
X109200000Y-125000000D01*
X109200000Y-125000000D02*
X113400000Y-125000000D01*
X106250000Y-125920000D02*
X108280000Y-125920000D01*
X113400000Y-125000000D02*
X114000000Y-125600000D01*
%TO.N,/ADC Flex/SPI0_MISO*%
X127960000Y-113740000D02*
X127960000Y-112276164D01*
X130599000Y-109637164D02*
X130599000Y-108433900D01*
X130599000Y-108433900D02*
X132624000Y-106408900D01*
X132624000Y-106408900D02*
X132624000Y-103901000D01*
X132624000Y-103901000D02*
X133775000Y-102750000D01*
X127960000Y-112276164D02*
X130599000Y-109637164D01*
%TO.N,/ADC Flex/ADC_DRDY*%
X128610000Y-113740000D02*
X128610000Y-112193264D01*
X133775000Y-105825000D02*
X133775000Y-105290000D01*
X128610000Y-112193264D02*
X131000000Y-109803264D01*
X131000000Y-108600000D02*
X133775000Y-105825000D01*
X131000000Y-109803264D02*
X131000000Y-108600000D01*
%TO.N,/ADC Flex/ADC_RESET*%
X132510000Y-112090000D02*
X132510000Y-113740000D01*
X128680000Y-108150000D02*
X128680000Y-105305000D01*
X128695000Y-108135000D02*
X128680000Y-108150000D01*
X128680000Y-105305000D02*
X128695000Y-105290000D01*
X133600000Y-111600000D02*
X133000000Y-111600000D01*
X133000000Y-111600000D02*
X132510000Y-112090000D01*
%TO.N,/ADC Flex/ADC_CS*%
X136310000Y-108275000D02*
X136310000Y-105295000D01*
X135125000Y-108275000D02*
X136310000Y-108275000D01*
X130800000Y-116200000D02*
X131800000Y-116200000D01*
X129260000Y-114660000D02*
X130800000Y-116200000D01*
X131800000Y-116200000D02*
X134200000Y-113800000D01*
X134200000Y-113800000D02*
X134200000Y-109200000D01*
X134200000Y-109200000D02*
X135125000Y-108275000D01*
X136310000Y-105295000D02*
X136315000Y-105290000D01*
X129260000Y-113740000D02*
X129260000Y-114660000D01*
%TO.N,/ADC Flex/ADC_SYNC_PDWN*%
X126140000Y-105305000D02*
X126155000Y-105290000D01*
X134460000Y-120940000D02*
X134600000Y-120800000D01*
X126140000Y-108200000D02*
X126140000Y-105305000D01*
X132510000Y-120940000D02*
X134460000Y-120940000D01*
%TO.N,SPI2_CLK*%
X123575000Y-136980000D02*
X123575000Y-150615000D01*
X123575000Y-150615000D02*
X124860000Y-151900000D01*
%TO.N,SPI2_DATA*%
X121035000Y-136980000D02*
X121035000Y-150615000D01*
X121035000Y-150615000D02*
X122320000Y-151900000D01*
%TD*%
M02*
