%TF.GenerationSoftware,KiCad,Pcbnew,9.0.3*%
%TF.CreationDate,2026-03-17T14:58:36+00:00*%
%TF.ProjectId,DigitSynth,44696769-7453-4796-9e74-682e6b696361,rev?*%
%TF.SameCoordinates,Original*%
%TF.FileFunction,Soldermask,Bot*%
%TF.FilePolarity,Negative*%
%FSLAX46Y46*%
G04 Gerber Fmt 4.6, Leading zero omitted, Abs format (unit mm)*
G04 Created by KiCad (PCBNEW 9.0.3) date 2026-03-17 14:58:36*
%MOMM*%
%LPD*%
G01*
G04 APERTURE LIST*
G04 Aperture macros list*
%AMRoundRect*
0 Rectangle with rounded corners*
0 $1 Rounding radius*
0 $2 $3 $4 $5 $6 $7 $8 $9 X,Y pos of 4 corners*
0 Add a 4 corners polygon primitive as box body*
4,1,4,$2,$3,$4,$5,$6,$7,$8,$9,$2,$3,0*
0 Add four circle primitives for the rounded corners*
1,1,$1+$1,$2,$3*
1,1,$1+$1,$4,$5*
1,1,$1+$1,$6,$7*
1,1,$1+$1,$8,$9*
0 Add four rect primitives between the rounded corners*
20,1,$1+$1,$2,$3,$4,$5,0*
20,1,$1+$1,$4,$5,$6,$7,0*
20,1,$1+$1,$6,$7,$8,$9,0*
20,1,$1+$1,$8,$9,$2,$3,0*%
G04 Aperture macros list end*
%ADD10RoundRect,0.250000X-0.845000X0.620000X-0.845000X-0.620000X0.845000X-0.620000X0.845000X0.620000X0*%
%ADD11O,2.190000X1.740000*%
%ADD12C,1.000000*%
%ADD13RoundRect,0.250000X0.620000X0.845000X-0.620000X0.845000X-0.620000X-0.845000X0.620000X-0.845000X0*%
%ADD14O,1.740000X2.190000*%
%ADD15C,0.630000*%
%ADD16C,0.600000*%
%ADD17O,2.316000X1.158000*%
%ADD18O,2.400000X1.200000*%
%ADD19RoundRect,0.250000X0.845000X-0.620000X0.845000X0.620000X-0.845000X0.620000X-0.845000X-0.620000X0*%
%ADD20C,2.700000*%
%ADD21R,1.700000X1.700000*%
%ADD22C,1.700000*%
G04 APERTURE END LIST*
D10*
%TO.C,J7*%
X154480000Y-110820000D03*
D11*
X154480000Y-113360000D03*
X154480000Y-115900000D03*
X154480000Y-118440000D03*
X154480000Y-120980000D03*
X154480000Y-123520000D03*
X154480000Y-126060000D03*
X154480000Y-128600000D03*
%TD*%
D10*
%TO.C,J1*%
X144060000Y-151270000D03*
D11*
X144060000Y-153810000D03*
%TD*%
D12*
%TO.C,TP5*%
X161360000Y-122150000D03*
%TD*%
%TO.C,TP2*%
X155400000Y-147000000D03*
%TD*%
%TO.C,TP3*%
X154800000Y-139600000D03*
%TD*%
D13*
%TO.C,J6*%
X123575000Y-136980000D03*
D14*
X121035000Y-136980000D03*
%TD*%
D10*
%TO.C,J2*%
X144100000Y-144935000D03*
D11*
X144100000Y-147475000D03*
%TD*%
D12*
%TO.C,TP7*%
X161010000Y-116850000D03*
%TD*%
D15*
%TO.C,J8*%
X105150000Y-121670000D03*
D16*
X105150000Y-127670000D03*
D15*
X105150000Y-127670000D03*
D17*
X105875000Y-120350000D03*
D18*
X102050000Y-120350000D03*
D17*
X105875000Y-128990000D03*
D18*
X102050000Y-128990000D03*
%TD*%
D19*
%TO.C,J9*%
X105150000Y-137900000D03*
D11*
X105150000Y-135360000D03*
%TD*%
D20*
%TO.C,H1*%
X103500000Y-104000000D03*
%TD*%
D10*
%TO.C,J4*%
X144100000Y-132470000D03*
D11*
X144100000Y-135010000D03*
%TD*%
D20*
%TO.C,H2*%
X161500000Y-104000000D03*
%TD*%
D12*
%TO.C,TP6*%
X161220000Y-128370000D03*
%TD*%
%TO.C,TP1*%
X154800000Y-153200000D03*
%TD*%
D10*
%TO.C,J3*%
X144100000Y-138680000D03*
D11*
X144100000Y-141220000D03*
%TD*%
D13*
%TO.C,J5*%
X127400000Y-151900000D03*
D14*
X124860000Y-151900000D03*
X122320000Y-151900000D03*
X119780000Y-151900000D03*
X117240000Y-151900000D03*
%TD*%
D20*
%TO.C,H4*%
X161500000Y-153000000D03*
%TD*%
D12*
%TO.C,TP8*%
X161390000Y-111790000D03*
%TD*%
%TO.C,TP4*%
X154600000Y-133400000D03*
%TD*%
D20*
%TO.C,H3*%
X103500000Y-153000000D03*
%TD*%
D21*
%TO.C,J_RPI1*%
X108375000Y-102750000D03*
D22*
X108375000Y-105290000D03*
X110915000Y-102750000D03*
X110915000Y-105290000D03*
X113455000Y-102750000D03*
X113455000Y-105290000D03*
X115995000Y-102750000D03*
X115995000Y-105290000D03*
X118535000Y-102750000D03*
X118535000Y-105290000D03*
X121075000Y-102750000D03*
X121075000Y-105290000D03*
X123615000Y-102750000D03*
X123615000Y-105290000D03*
X126155000Y-102750000D03*
X126155000Y-105290000D03*
X128695000Y-102750000D03*
X128695000Y-105290000D03*
X131235000Y-102750000D03*
X131235000Y-105290000D03*
X133775000Y-102750000D03*
X133775000Y-105290000D03*
X136315000Y-102750000D03*
X136315000Y-105290000D03*
X138855000Y-102750000D03*
X138855000Y-105290000D03*
X141395000Y-102750000D03*
X141395000Y-105290000D03*
X143935000Y-102750000D03*
X143935000Y-105290000D03*
X146475000Y-102750000D03*
X146475000Y-105290000D03*
X149015000Y-102750000D03*
X149015000Y-105290000D03*
X151555000Y-102750000D03*
X151555000Y-105290000D03*
X154095000Y-102750000D03*
X154095000Y-105290000D03*
X156635000Y-102750000D03*
X156635000Y-105290000D03*
%TD*%
M02*
